<svg width="31" height="26" viewBox="0 0 31 26" fill="none" xmlns="http://www.w3.org/2000/svg">
<path fill-rule="evenodd" clip-rule="evenodd" d="M17.4414 0.67838L30.3923 11.6492C31.2025 12.3351 31.2025 13.4474 30.3923 14.1333C29.9871 14.4764 29.4565 14.6479 28.9261 14.6479C28.3955 14.6479 27.8651 14.4764 27.4598 14.1333L25.7052 12.6469V24.1284C25.7052 25.162 24.716 26 23.4956 26H18.776V20.7833C18.776 20.378 18.388 20.049 17.9092 20.049H13.0925C12.6133 20.049 12.2256 20.378 12.2256 20.7833V25.9999H7.50514C6.28476 25.9999 5.29545 25.162 5.29545 24.1283V12.6459L3.53992 14.1332C2.72984 14.8195 1.41748 14.8195 0.607274 14.1332C-0.202425 13.4474 -0.202425 12.335 0.607274 11.6492L13.558 0.679609C14.6306 -0.226973 16.3711 -0.22569 17.4414 0.67838ZM18.6878 6.12371C19.5702 6.40946 20.2704 7.14374 20.61 8.13812C21.0442 9.41072 20.829 10.8757 20.0338 12.0541C19.5786 12.7225 19.2807 13.487 19.1627 14.2893C19.1563 14.3338 19.1502 14.3793 19.1443 14.4259C19.0273 15.327 18.8569 16.0564 18.633 16.5934C18.3258 17.3299 17.9013 17.7306 17.372 17.7842C17.3382 17.7895 17.3041 17.7895 17.2708 17.7895C16.7226 17.7895 16.2893 17.3617 15.9826 16.5173C15.7876 15.9808 15.6347 15.2677 15.5519 14.5087C15.5339 14.3214 15.4941 14.137 15.4331 13.9593C15.3723 14.1365 15.3325 14.3203 15.3144 14.5069C15.2316 15.2655 15.0787 15.979 14.8837 16.5155C14.5091 17.5471 13.9942 17.7877 13.5959 17.7877C13.5613 17.7877 13.5271 17.7859 13.4943 17.7824C12.9645 17.7289 12.5395 17.3286 12.2328 16.5916C12.0089 16.0564 11.8367 15.3265 11.7215 14.4242C11.7154 14.3758 11.7091 14.3285 11.7026 14.2822C11.5844 13.4839 11.2872 12.7234 10.8338 12.0586C10.0363 10.8775 9.8212 9.41249 10.2554 8.139C10.5945 7.14418 11.2952 6.40946 12.1776 6.12371C13.6218 5.65395 14.8364 6.14362 15.4327 6.47758C16.029 6.14539 17.2418 5.65616 18.6878 6.12371Z" fill="#C7C7C9"/>
</svg>
