<svg width="22" height="26" viewBox="0 0 22 26" fill="none" xmlns="http://www.w3.org/2000/svg">
<path d="M17.5145 5.47583C16.6785 5.47583 16.0096 6.14464 16.0096 6.98065C16.0096 7.81667 16.6785 8.48548 17.5145 8.48548C18.3505 8.48548 19.0193 7.81667 19.0193 6.98065C19.0193 6.14464 18.3087 5.47583 17.5145 5.47583Z" fill="#C7C7C9"/>
<path d="M20.7749 3.26034L16.5948 1.83912C16.1768 1.71372 15.7588 1.92272 15.6334 2.34073C14.8392 5.09957 14.1704 7.56581 13.3344 10.3665C13.209 10.7427 13.4598 11.1607 13.836 11.2861L18.3505 12.5819C18.7685 12.7073 19.1865 12.4565 19.2701 12.0385L21.2347 4.13816C21.3601 3.76195 21.1511 3.38575 20.7749 3.26034ZM17.5144 9.11243C16.344 9.11243 15.3826 8.15102 15.3826 6.9806C15.3826 5.81018 16.344 4.84877 17.5144 4.84877C18.6849 4.84877 19.6463 5.81018 19.6463 6.9806C19.6463 8.15102 18.6849 9.11243 17.5144 9.11243Z" fill="#C7C7C9"/>
<path d="M9.82309 5.643C9.82309 5.4758 9.69769 5.30859 9.48869 5.30859H1.54656C1.37936 5.30859 1.21216 5.434 1.21216 5.643V21.7362C1.21216 24.0771 3.13499 25.9999 5.47582 25.9999C6.31184 25.9999 7.14785 25.7491 7.85846 25.2475L7.98386 25.1221C7.23145 24.2861 6.72984 23.1993 6.72984 21.9453C6.72984 20.2732 8.52727 17.598 9.73949 15.9678V5.643H9.82309ZM9.19608 13.8777H1.92277V5.9356H9.23788C9.19608 5.9356 9.19608 13.8777 9.19608 13.8777Z" fill="#C7C7C9"/>
<path d="M6.47912 5.85209V0H4.9325V5.85209H6.47912Z" fill="#C7C7C9"/>
<path d="M4.30547 5.85209V0H2.71704V5.85209H4.30547Z" fill="#C7C7C9"/>
<path d="M10.492 0H9.27979V5.85209H10.492C10.9518 5.85209 11.3698 5.47588 11.3698 4.97428V0.836013C11.328 0.376206 10.9518 0 10.492 0Z" fill="#C7C7C9"/>
<path d="M2.09003 5.85209V0H0.877814C0.418007 0 0 0.376206 0 0.877813V4.97428C0 5.43408 0.376206 5.85209 0.877814 5.85209H2.09003Z" fill="#C7C7C9"/>
<path d="M8.6527 5.85209V0H7.10608V5.85209H8.6527Z" fill="#C7C7C9"/>
<path d="M15.4663 21.9872C15.4663 24.2027 13.6688 26.0001 11.4534 26.0001C9.23798 26.0001 7.44055 24.2027 7.44055 21.9872C7.44055 19.8554 11.0772 15.4663 11.2026 15.2991C11.328 15.1737 11.5788 15.1737 11.7042 15.2991C11.8296 15.4663 15.4663 19.8554 15.4663 21.9872Z" fill="#C7C7C9"/>
</svg>
