<svg width="21" height="26" viewBox="0 0 21 26" fill="none" xmlns="http://www.w3.org/2000/svg">
<path fill-rule="evenodd" clip-rule="evenodd" d="M3.00501 3.00501C4.92909 1.08094 7.5387 0 10.2598 0C12.9808 0 15.5904 1.08094 17.5145 3.00501C19.4386 4.92909 20.5195 7.5387 20.5195 10.2598C20.5195 17.0859 13.5891 23.5821 11.1203 25.6797C10.6175 26.1068 9.90196 26.1068 9.39925 25.6797C6.93045 23.5821 0 17.0859 0 10.2598C0 7.5387 1.08093 4.92909 3.00501 3.00501ZM13.206 6.03006C14.0047 6.27671 14.6385 6.91049 14.9458 7.76877C15.3389 8.8672 15.1441 10.1317 14.4243 11.1488C14.0123 11.7257 13.7427 12.3856 13.6359 13.078C13.6301 13.1165 13.6245 13.1558 13.6192 13.196C13.5133 13.9737 13.3591 14.6033 13.1564 15.0668C12.8784 15.7025 12.4941 16.0484 12.015 16.0946C11.9845 16.0992 11.9536 16.0992 11.9234 16.0992C11.4273 16.0992 11.035 15.73 10.7574 15.0012C10.581 14.538 10.4425 13.9226 10.3676 13.2674C10.3514 13.1058 10.3153 12.9466 10.2601 12.7932C10.2051 12.9462 10.169 13.1048 10.1526 13.2659C10.0777 13.9207 9.93927 14.5365 9.76278 14.9996C9.4237 15.89 8.9577 16.0977 8.5972 16.0977C8.56587 16.0977 8.53494 16.0961 8.50519 16.0931C8.02571 16.0469 7.64102 15.7014 7.36341 15.0653C7.16075 14.6033 7.00489 13.9734 6.90059 13.1945C6.89503 13.1527 6.88935 13.1119 6.88353 13.0719C6.77647 12.3829 6.5075 11.7265 6.09709 11.1526C5.3753 10.1332 5.18057 8.86873 5.57359 7.76953C5.88055 6.91087 6.5147 6.27671 7.31344 6.03006C8.6206 5.6246 9.71995 6.04725 10.2597 6.3355C10.7995 6.04877 11.8972 5.6265 13.206 6.03006Z" fill="#C7C7C9"/>
</svg>
