<svg width="24" height="26" viewBox="0 0 24 26" fill="none" xmlns="http://www.w3.org/2000/svg">
<path d="M17.8968 20.4968C17.6119 20.4968 17.3945 20.7149 17.3945 20.9991C17.3945 21.283 17.6119 21.5047 17.8968 21.5047C18.181 21.5047 18.4021 21.283 18.4021 20.9991C18.4021 20.7149 18.181 20.4968 17.8968 20.4968ZM14.6551 17.0333L12.6969 20.4221C12.2959 21.1159 11.3367 21.1639 11.0127 20.4563L9.03771 17.0383C10.8331 17.7932 12.8614 17.7915 14.6551 17.0347V17.0333ZM17.3843 16.9955H17.4922C17.7702 16.9955 18.0817 17.0504 18.409 17.1396V19.5692C18.9981 19.7817 19.4264 20.3418 19.4264 20.9997C19.4264 21.8376 18.7343 22.5296 17.8968 22.5296C17.059 22.5296 16.3702 21.8376 16.3702 20.9997C16.3702 20.3418 16.7968 19.7817 17.3843 19.5692V16.9955ZM5.65388 16.9955H6.01012V18.654C6.29959 18.7192 6.58413 18.8336 6.84136 19.005C7.24695 19.2794 7.59826 19.706 7.6874 20.259C7.68905 20.2662 7.6874 20.2715 7.69102 20.278L8.0351 23.1037C8.08838 23.5316 7.89135 23.9773 7.56405 24.2102C7.2384 24.4398 6.85123 24.5066 6.43874 24.5066C6.14762 24.5148 5.90749 24.2836 5.90749 23.9941C5.90749 23.7027 6.14762 23.4714 6.43874 23.4816C6.7213 23.4816 6.91307 23.4148 6.97458 23.3721C7.03642 23.3273 7.03643 23.3635 7.02129 23.2267L6.67524 20.4168C6.63939 20.2027 6.4986 20.0093 6.27097 19.8567C6.03973 19.7007 5.73085 19.6136 5.49829 19.6136C5.26539 19.6136 4.95882 19.7027 4.72889 19.8567C4.49797 20.0109 4.35587 20.204 4.32166 20.4221L3.97857 23.2267C3.96146 23.3619 3.95982 23.3277 4.02166 23.3721C4.0835 23.4148 4.27692 23.4816 4.56113 23.4816C4.85093 23.4714 5.09105 23.7027 5.09105 23.9941C5.09105 24.2836 4.85125 24.5168 4.56113 24.5066C4.14863 24.5066 3.75916 24.4398 3.43219 24.2102C3.1049 23.9773 2.90786 23.5316 2.96115 23.1037L3.30555 20.278C3.3072 20.2715 3.30884 20.2665 3.31081 20.259C3.39996 19.706 3.74929 19.2794 4.15554 19.005C4.41244 18.8336 4.69665 18.7192 4.98612 18.654V17.081C5.21342 17.0241 5.45158 16.9955 5.65388 16.9955ZM15.8699 4.36376C16.058 5.0575 16.4212 5.55256 16.8462 6.00453C17.2728 6.4588 17.7096 6.94366 17.9922 7.77457V10.3719C17.9922 12.5699 16.8225 14.5969 14.9189 15.6968C13.0137 16.7949 10.6716 16.7949 8.76831 15.6968C6.86307 14.5969 5.69138 12.5699 5.69138 10.3719V7.64431C5.8542 7.1407 6.11571 6.59432 6.47919 6.15551C6.90222 5.64499 7.44431 5.29039 8.10845 5.29039H13.4215C14.386 5.29039 14.9719 5.0723 15.3472 4.82954C15.5478 4.69961 15.7245 4.51968 15.8699 4.36376ZM11.842 0C11.5147 0 11.1874 0.0240128 10.862 0.0684201C8.76634 0.311838 6.76899 1.2661 5.61605 2.55951C5.01474 3.072 4.6858 3.80489 4.60685 4.71968V4.83941C4.60521 4.87165 4.60685 4.90454 4.60685 4.93546C4.60685 5.70651 4.60849 6.5134 4.60521 7.27063C4.44929 7.25879 4.29501 7.29629 4.15949 7.36668C3.75226 7.58247 3.66607 8.6568 3.96936 9.76698C4.13745 10.3801 4.38909 10.8703 4.64961 11.1548C4.85849 13.0768 5.83151 14.8327 7.3407 16.0307H5.65388C4.8552 16.0307 3.96804 16.3255 3.20029 16.7685C2.73122 17.0465 2.27004 17.3787 1.87925 17.7952C0.541112 19.2241 0 20.6632 0 22.4296V25.5151C0 25.8336 0.193419 26 0.483218 26H23.206C23.4951 26 23.6892 25.8336 23.6892 25.5151V22.4296C23.6892 20.6632 23.1477 19.2241 21.8099 17.7952C21.4191 17.3787 20.9583 17.0465 20.4905 16.7685C19.7215 16.3251 18.8353 16.0307 18.0356 16.0307H16.3412C17.8471 14.8347 18.8205 13.0821 19.033 11.1633C19.2948 10.8788 19.5521 10.3874 19.7198 9.76698C20.0228 8.6568 19.9376 7.58247 19.5277 7.36668C19.3961 7.29826 19.2468 7.26043 19.0945 7.27063C19.1356 2.35392 18.431 2.0059 16.2692 1.47498C15.1623 0.537822 13.7729 0.0940776 12.3443 0.0187497C12.1762 0.00855242 12.0084 0.00131568 11.8403 0.00131568L11.842 0Z" fill="#C7C7C9"/>
</svg>
