<svg width="22" height="26" viewBox="0 0 22 26" fill="none" xmlns="http://www.w3.org/2000/svg">
<path d="M21.6663 6.93323C21.6663 3.10396 18.9502 0 15.5998 0C13.664 0 11.9438 1.03994 10.8332 2.65328C9.72256 1.03994 8.00216 0 6.06658 0C2.71612 0 0 3.10396 0 6.93323C0 9.64279 1.36325 11.9831 3.34559 13.1238L3.53453 14.509C4.06117 18.3713 5.38887 22.0815 7.43152 25.4013C7.62533 25.7159 7.94123 25.9579 8.30811 25.9939C8.97334 26.0595 9.53319 25.539 9.53319 24.8877V17.84C9.53319 17.1363 10.06 16.5049 10.7634 16.4681C11.513 16.4292 12.1332 17.0254 12.1332 17.7664V24.8188C12.1332 25.3363 12.4533 25.828 12.953 25.9615C13.4427 26.0919 13.9392 25.8818 14.1919 25.4709L14.2344 25.4017C16.2775 22.0815 17.6048 18.3718 18.1312 14.509L18.3201 13.1238C20.3031 11.9831 21.6663 9.64279 21.6663 6.93323Z" fill="#C7C7C9"/>
<path d="M10.8332 2.65328C9.72256 1.03994 8.00216 0 6.06658 0C2.71612 0 0 3.10396 0 6.93323C0 9.64279 1.36324 11.9831 3.34559 13.1238L3.53453 14.509C3.80071 16.4607 4.27297 18.3734 4.93692 20.2164C6.57798 19.9629 8.12742 19.388 9.53319 18.5467V17.84C9.53319 17.1359 10.06 16.5049 10.7634 16.4681C11.1624 16.4474 11.5217 16.6099 11.773 16.8754C14.9003 14.015 16.8998 9.65401 16.8998 4.7666C16.8998 3.11919 16.671 1.53188 16.2502 0.0412592C16.0365 0.0152342 15.8198 0 15.5998 0C13.664 0 11.9438 1.03994 10.8332 2.65328Z" fill="#C7C7C9"/>
<path d="M9.53321 6.06647C9.53321 5.58783 9.14519 5.19982 8.66655 5.19982H6.93325V3.46651C6.93325 2.98787 6.54523 2.59985 6.06659 2.59985C5.58795 2.59985 5.19994 2.98787 5.19994 3.46651V5.19982H3.46663C2.98799 5.19982 2.59998 5.58783 2.59998 6.06647C2.59998 6.54511 2.98799 6.93312 3.46663 6.93312H5.19994V8.66643C5.19994 9.14507 5.58795 9.53309 6.06659 9.53309C6.54523 9.53309 6.93325 9.14507 6.93325 8.66643V6.93312H8.66655C9.14519 6.93312 9.53321 6.54511 9.53321 6.06647Z" fill="#F5F5F9"/>
<path d="M20.3524 6.49985C20.3678 6.73867 20.1723 6.9333 19.933 6.9333C19.6937 6.9333 19.5014 6.73877 19.4837 6.5001C19.3169 4.24866 17.8634 2.44376 16.0319 2.19579C15.7948 2.16368 15.5997 1.9727 15.5997 1.73338C15.5997 1.49406 15.7945 1.29764 16.0325 1.32307C18.338 1.56944 20.1754 3.76462 20.3524 6.49985Z" fill="#F5F5F9"/>
</svg>
