<svg width="31" height="31" viewBox="0 0 31 31" fill="none" xmlns="http://www.w3.org/2000/svg">
<path d="M12.7113 0.500732C19.7203 0.500732 25.4226 6.18043 25.4226 13.1617C25.4226 16.219 24.3289 19.0267 22.5108 21.217L30.1406 28.8166C30.6147 29.2888 30.6147 30.0564 30.1405 30.5286C29.6691 30.9982 28.9067 30.9982 28.4353 30.5286L20.7987 22.9224C18.5996 24.7332 15.7808 25.8226 12.7113 25.8226C5.7023 25.8226 0 20.1429 0 13.1617C0 6.18043 5.70224 0.500732 12.7113 0.500732ZM12.7113 23.411C18.3852 23.411 23.0014 18.8132 23.0014 13.1617C23.0014 7.51019 18.3852 2.91234 12.7113 2.91234C7.03729 2.91234 2.42114 7.51019 2.42114 13.1617C2.42114 18.8132 7.03729 23.411 12.7113 23.411Z" fill="#C7C7C9"/>
</svg>
