<svg width="26" height="26" viewBox="0 0 26 26" fill="none" xmlns="http://www.w3.org/2000/svg">
<path d="M25.3857 12.9999C25.3857 11.2218 26.4333 9.24724 25.7922 7.70101C25.1275 6.0981 22.9659 5.44988 21.758 4.24189C20.55 3.03391 19.9017 0.872305 18.2988 0.207732C16.7526 -0.433432 14.7781 0.614286 12.9999 0.614286C11.2218 0.614286 9.2473 -0.433432 7.70101 0.207732C6.0981 0.872407 5.44988 3.03401 4.24189 4.24199C3.03391 5.44998 0.872305 6.09825 0.207732 7.70111C-0.433432 9.24735 0.614286 11.2218 0.614286 13C0.614286 14.7781 -0.433381 16.7527 0.207732 18.2989C0.872407 19.9018 3.03401 20.55 4.24199 21.758C5.44998 22.966 6.09825 25.1276 7.70111 25.7923C9.24735 26.4334 11.2219 25.3857 13 25.3857C14.7782 25.3857 16.7527 26.4334 18.2989 25.7923C19.9019 25.1276 20.5501 22.966 21.7581 21.758C22.966 20.55 25.1276 19.9018 25.7923 18.2989C26.4333 16.7526 25.3857 14.7781 25.3857 12.9999Z" fill="#C7C7C9"/>
<path d="M12.9999 22.4712C18.2308 22.4712 22.4714 18.2307 22.4714 12.9998C22.4714 7.76884 18.2308 3.52832 12.9999 3.52832C7.76896 3.52832 3.52844 7.76884 3.52844 12.9998C3.52844 18.2307 7.76896 22.4712 12.9999 22.4712Z" fill="#F5F5F9"/>
<path d="M8.62851 17.9177C8.48871 17.9177 8.34881 17.8644 8.24207 17.7577C8.02869 17.5443 8.02869 17.1982 8.24207 16.9849L16.9849 8.24207C17.1984 8.02869 17.5443 8.02869 17.7577 8.24207C17.9711 8.45545 17.9711 8.80147 17.7577 9.01481L9.01491 17.7577C8.90822 17.8644 8.76836 17.9177 8.62851 17.9177Z" fill="#C7C7C9"/>
<path d="M10.0857 12.0892C8.98098 12.0892 8.08215 11.1904 8.08215 10.0856C8.08215 8.98081 8.98098 8.08203 10.0857 8.08203C11.1905 8.08203 12.0893 8.98081 12.0893 10.0856C12.0893 11.1904 11.1905 12.0892 10.0857 12.0892ZM10.0857 9.17489C9.5835 9.17489 9.17502 9.58343 9.17502 10.0856C9.17502 10.5878 9.58355 10.9963 10.0857 10.9963C10.5879 10.9963 10.9964 10.5878 10.9964 10.0856C10.9964 9.58343 10.588 9.17489 10.0857 9.17489Z" fill="#C7C7C9"/>
<path d="M15.9142 17.9178C14.8095 17.9178 13.9106 17.019 13.9106 15.9142C13.9106 14.8094 14.8095 13.9106 15.9142 13.9106C17.019 13.9106 17.9178 14.8094 17.9178 15.9142C17.9178 17.019 17.019 17.9178 15.9142 17.9178ZM15.9142 15.0035C15.412 15.0035 15.0035 15.412 15.0035 15.9142C15.0035 16.4164 15.412 16.8249 15.9142 16.8249C16.4164 16.8249 16.8249 16.4164 16.8249 15.9142C16.8249 15.4121 16.4164 15.0035 15.9142 15.0035Z" fill="#C7C7C9"/>
</svg>
