<svg width="26" height="26" viewBox="0 0 26 26" fill="none" xmlns="http://www.w3.org/2000/svg">
<path d="M17.3595 2.68975C16.5535 2.68975 15.756 2.85337 15.015 3.17075C13.7285 3.72259 12.2716 3.72259 10.985 3.17075C10.244 2.85337 9.44655 2.68975 8.64055 2.68975C5.35424 2.68929 2.69015 5.35343 2.6897 8.63973C2.6897 8.64019 2.6897 8.64019 2.6897 8.64065C2.6897 11.1967 3.40785 13.7017 4.76254 15.8691L4.93108 16.1381L6.88331 24.7279C7.05231 25.472 7.71394 26.0001 8.47734 26.0001C9.27704 26.0005 9.95979 25.4227 10.0911 24.6341L11.436 16.5679C11.5633 15.8031 12.2245 15.2423 13 15.2414C13.776 15.2414 14.438 15.8022 14.5658 16.5679L15.9106 24.6341C16.042 25.4222 16.7238 25.9996 17.5226 26.0001C18.286 26.0001 18.9477 25.472 19.1167 24.7278L21.069 16.138L21.2375 15.869C22.5922 13.7016 23.3103 11.1966 23.3103 8.64055C23.3108 5.35424 20.6467 2.69015 17.3603 2.6897C17.3599 2.68975 17.3599 2.68975 17.3595 2.68975Z" fill="#C7C7C9"/>
<path d="M18.8814 2.89355C16.2415 11.8658 9.10004 15.9227 5.24219 17.5069L6.88334 24.7273C7.08372 25.6077 7.9601 26.1586 8.8405 25.9583C9.48689 25.8113 9.98048 25.2881 10.0898 24.6341L11.4347 16.5678C11.5786 15.7031 12.3962 15.1185 13.261 15.2624C13.9302 15.3736 14.4552 15.8985 14.5663 16.5678L15.9112 24.6341C16.06 25.5248 16.9028 26.1259 17.7935 25.9767C18.4475 25.8673 18.9706 25.3737 19.1177 24.7274L21.069 16.138L21.2376 15.869C22.5923 13.7016 23.3104 11.1966 23.3104 8.64052C23.3086 5.94185 21.4904 3.58255 18.8814 2.89355Z" fill="#C7C7C9"/>
<path d="M1.79309 3.58622C1.63978 2.66678 0.919394 1.94639 0 1.79309C0.919394 1.63978 1.63978 0.919394 1.79309 0C1.94639 0.919394 2.66678 1.63978 3.58617 1.79309C2.66678 1.94639 1.94639 2.66678 1.79309 3.58622Z" fill="#C7C7C9"/>
<path d="M5.4044 8.06901C5.37588 8.31493 5.17863 8.51717 4.93106 8.51717C4.68349 8.51717 4.48021 8.31582 4.50316 8.06931C4.64308 6.56661 5.47938 5.69526 6.25049 5.26105C6.68162 5.01828 7.16147 5.33338 7.25849 5.81856L7.17242 5.37925C7.22213 5.62253 7.06646 5.86311 6.84194 5.96917C6.34076 6.2059 5.55415 6.77796 5.4044 8.06901Z" fill="#F5F5F9"/>
<path d="M8.06897 5.37918C8.06897 5.62675 8.26967 5.82745 8.51724 5.82745C8.76481 5.82745 8.96551 5.62675 8.96551 5.37918C8.96551 5.13161 8.76481 4.93091 8.51724 4.93091C8.26967 4.93091 8.06897 5.13161 8.06897 5.37918Z" fill="#F5F5F9"/>
<path d="M24.2069 22.4138C24.0536 21.4944 23.3332 20.774 22.4138 20.6207C23.3332 20.4674 24.0536 19.747 24.2069 18.8276C24.3602 19.747 25.0806 20.4674 26 20.6207C25.0806 20.774 24.3602 21.4944 24.2069 22.4138Z" fill="#C7C7C9"/>
</svg>
